<svg xmlns="http://www.w3.org/2000/svg" viewBox="0 0 261.15 232.09"><defs><style>.cls-1{fill:#fff;}</style></defs><g id="Layer_2" data-name="Layer 2"><g id="Layer_1-2" data-name="Layer 1"><path class="cls-1" d="M116,14.51A101.54,101.54,0,1,0,166.72,204a7.27,7.27,0,0,1,7.26,12.6,116.07,116.07,0,1,1,57.84-108.34,7.26,7.26,0,0,1-14.46,1A101.54,101.54,0,0,0,116,14.51ZM90.71,174.11a25.34,25.34,0,0,1,25.38-25.38,25.64,25.64,0,0,1,25.39,25.38c0,13.6-11.79,25.39-25.39,25.39A25.64,25.64,0,0,1,90.71,174.11ZM116.09,185a10.88,10.88,0,1,0-10.88-10.88A10.91,10.91,0,0,0,116.09,185Zm27.56-76.88a20,20,0,0,0,31.91,0c2.41-3.22,6.94-4.26,10.16-1.45a7.29,7.29,0,0,1,1.45,10.16,34.48,34.48,0,0,1-55.12,0c-2.81-3.22-1.77-7.76,1.45-10.16C136.67,103.85,141.25,104.89,143.65,108.11Zm-45-1.45a7.27,7.27,0,0,1,1.45,10.16,34.48,34.48,0,0,1-55.12,0c-2.81-3.22-1.77-7.76,1.45-10.16,3.18-2.81,7.75-1.77,10.16,1.45a20,20,0,0,0,31.91,0C90.93,104.89,95.47,103.85,98.68,106.66Zm148.91,43.93a27.14,27.14,0,0,1,0,47,23.66,23.66,0,0,1-23.3,20,23.34,23.34,0,0,1-16.45-6.8,21.52,21.52,0,0,1-3,.18,23.58,23.58,0,0,1-23.44-21.62l-27.56-8.34a7.28,7.28,0,0,1-5.12-6.94,7.19,7.19,0,0,1,5.12-6.93l28.1-8.57a23.63,23.63,0,0,1,22.9-18.13h.31a23.53,23.53,0,0,1,42.43,10.11ZM207.2,155.3a7.85,7.85,0,0,0-2.35-.32,9.47,9.47,0,0,0-9.43,9.21,7,7,0,0,1-4.76,7l-9.7,2.94,10,3a7.23,7.23,0,0,1,5,8.3,12.35,12.35,0,0,0-.54,1.85,9.47,9.47,0,0,0,9.43,9.21A8.74,8.74,0,0,0,208,196c2.86-1.22,6.49,0,8.71,2.9a9,9,0,0,0,7.61,4.26,9.16,9.16,0,0,0,9.07-9.24v-.59a7.15,7.15,0,0,1,4.89-7.3,12.63,12.63,0,0,0,0-23.8,7.15,7.15,0,0,1-4.89-7.3v-.59a9.13,9.13,0,0,0-9.07-9.2,9,9,0,0,0-8.38,5.8,7.28,7.28,0,0,1-8.71,4.4Z"/></g></g></svg>