<svg xmlns="http://www.w3.org/2000/svg" viewBox="0 0 610.9 461.14"><defs><style>.cls-1{fill:#06b6d4;}.cls-1,.cls-2{fill-rule:evenodd;}.cls-2{fill:#52525b;}</style></defs><g id="Layer_2" data-name="Layer 2"><g id="Layer_1-2" data-name="Layer 1"><path class="cls-1" d="M573.23,211.17a30.93,30.93,0,0,0,20.45-26.71,33.38,33.38,0,0,0-41.93,24.41l8.13,11.9a8.23,8.23,0,0,0-8.35,13.56,61.45,61.45,0,0,0,58.64,41.73q6-41.49-36.94-64.89Z"/><path class="cls-2" d="M86.72,215.73h0a42.38,42.38,0,0,1-3.55-3.42,43,43,0,0,1-11.24-32.95,169.29,169.29,0,0,0,14.79,36.37ZM279.53,368h0a528.22,528.22,0,0,1,73.33,2.32,101.49,101.49,0,0,1-9.38-43.55A92.51,92.51,0,0,1,443,244.35a21.77,21.77,0,0,0,27.12,21.91,36.08,36.08,0,0,0-15.85-28q39.45-.2,54,14.19a207.34,207.34,0,0,0-26.08-9.18Q481.5,282.1,543.8,288q-7.78-45.6-39.65-49.45l-29.83-6.68q30.15-26.24,76.57-19.4-11-9-62.8-5.43a50.59,50.59,0,0,0,2.29-6.89q53.29,7.06,71.16-44.65Q489.09,142.67,485.16,187q25.24-20.22,45.49-22.12-33.16,13.41-42.56,25.67Q480.26,207.8,467.22,217,444.7,235.15,422,225.16a33.32,33.32,0,0,0,33-17.53A23.62,23.62,0,0,0,418,219.94L360.39,250q4.56-28.59,34.43-39.23,28-2.12,34.64-15.86-6.52,2.79-32.76,1.88,1.85-11.37,5.63-17.11a19.87,19.87,0,0,0,26.91-9.39q-10-10-26.91,2.71-2.15-30.9,11.27-42.35-9.39,12.9-4.59,33.8,32.75-9.44,29.63-72.62Q388.8,113,394.41,155.05q1.05,32.35-29.64,46.74L348.5,160.26q24.28-14.62,21.91-40.06,4,6.17,3.54,16.28A35.61,35.61,0,0,0,363.73,87q-17.81,27-5,53.21-3.59,3.67-15.64,9.59l-10-11.05q34.21-10.44-.84-76.79L313,104.55q-33.18-26.82-85.55-18.78,35.21,72.11,96,61.77-7-25.33-39.65-42.15,61,20.16,58.43,97.24-3.69,33.5-28.59,68.12-6.12-6.56-10.11-28.59Q300.67,209,267,193.76q-43.32-37-79.71-3.55,44.57,37,80.13,7.09,9.71,10.83,15.23,29-31.47-18.9-53-3.54,27.66,33.5,55.92,16.49a127.34,127.34,0,0,0-1.25,24q-22.62-14.56-74.48-25.66Q190.32,193.44,160,183.12a43.79,43.79,0,0,1,15.44,4.17q-6.63-41-73.45-25,26.19,52,70.53,33.81,16.2,24.39,15.45,41.73-22.75,5.37-50.5-15.44a52.47,52.47,0,0,0-65.52-43q46.69,5,47,30.13-8.19-1-12.72,2.3l4.17,6.46a63.28,63.28,0,0,0-14.69,3.43,43.92,43.92,0,0,0,5.87,2.37,68.9,68.9,0,0,1,16.12-2.46c-.32,1.59-.69,3.14-1.09,4.65q22.56,2.13,30.65,15.1-30,12.28-44.45,22.12,7.77-11.17,31.3-22.95-14.28-.33-24.89,3.16A47.94,47.94,0,0,1,85.59,263q-5.48,10.1-6.56,24.7,57.18,2.65,61.76-38.39,64.4-3.28,104.75,21.28,56.06,42.88,34,97.45ZM208.47,110.18h0q39.43,16.54,37.14,56.13-44.37,6.25-37.14-56.13ZM304,190.92h0a47.41,47.41,0,0,0-12.73,16.48q-5.54-39.59,34.22-50.28A48.43,48.43,0,0,1,303,213.87a24.08,24.08,0,0,1,1-23Zm51.35,184.47-78.11-2.18q1.22-2.61,2.27-5.21a528.22,528.22,0,0,1,73.33,2.32q1.18,2.56,2.51,5.07Z"/><path class="cls-1" d="M473.06,97.86l-5-10.43a38.74,38.74,0,0,1,37.77-19.82,34.61,34.61,0,0,1-14.4,33.59A25.72,25.72,0,0,1,515,111.43a43.17,43.17,0,0,1-66.14,28.17q-12.74-17.34,24.2-41.74Z"/><path class="cls-1" d="M384.79,96.2q12.42-34.74,25.46-41.53-17.82,22.49-19.82,49.87,55.51-6.26,50.7-80.12-77.7,23.36-56.34,71.78Z"/><path class="cls-1" d="M303,36.31a81.7,81.7,0,0,0-6.26,50.08Q267.64,36.17,305.92,0a61.84,61.84,0,0,1,3.33,86.39A76.06,76.06,0,0,1,303,36.31Z"/><path class="cls-1" d="M241.24,35.47q26.2,15.39,30.87,34.64Q220.23,80.05,192,16.69q86.1-8.3,84.72,47.58-18.21-24.33-35.47-28.8Z"/><path class="cls-1" d="M212.85,79.29l5.63,4.38A31,31,0,0,0,205.34,48a29.64,29.64,0,0,0-2.92,21.49,67.84,67.84,0,0,0-69.27-15A66.85,66.85,0,0,0,211,102.25a36.64,36.64,0,0,0-9-15.86,32.16,32.16,0,0,0,11.47,6.88c-.41-9.32-.63-14-.63-14Z"/><path class="cls-1" d="M145.66,136.46l11.06,10.85q-2.79-42.54-54.88-40.68,18,53.38,49.87,44.23l-6.05-14.4Z"/><path class="cls-1" d="M83.06,136.46l37.57,7.93A43.13,43.13,0,0,1,52,142.52q36.14-33.11,58.22-10.44a131.8,131.8,0,0,1-27.13,4.38Z"/><path class="cls-1" d="M71.93,179.36a169.29,169.29,0,0,0,14.79,36.37Q53.23,230.1,42.58,267.08q64.55,6.6,75.12-45.49-22.56.87-38,14.19,6-14.49,30.68-17.53l-4.17-6.46q4.53-3.3,12.72-2.3-.33-25.1-47-30.13Z"/><path class="cls-1" d="M599.27,461.14A526.75,526.75,0,0,0,0,461.14c183.67-100.09,415.6-100.09,599.27,0Z"/></g></g></svg>