<svg xmlns="http://www.w3.org/2000/svg" viewBox="0 0 213.41 243.95"><defs><style>.cls-1{fill:#fff;}</style></defs><g id="Layer_2" data-name="Layer 2"><g id="Layer_1-2" data-name="Layer 1"><path class="cls-1" d="M212.38,183A7.59,7.59,0,0,1,202,185.75l-30.31-17.49,6.41,23.89a7.64,7.64,0,0,1-5.39,9.35,8.46,8.46,0,0,1-2,.25,7.64,7.64,0,0,1-7.36-5.64L153,157.49l-38.69-22.32v44.64l28.25,28.26a7.62,7.62,0,0,1,0,10.78,7.92,7.92,0,0,1-5.81,2.23,6.94,6.94,0,0,1-5.39-2.23l-17-17.5v35a7.63,7.63,0,0,1-15.25,0v-35L81.6,218.84a7.62,7.62,0,0,1-10.78-10.77l28.26-28.25V135.17L60.39,157.49,50,196.12a7.63,7.63,0,0,1-7.36,5.64,8.53,8.53,0,0,1-2-.25,7.63,7.63,0,0,1-5.38-9.35l6.4-23.89L11.41,185.75a7.62,7.62,0,0,1-7.62-13.19l30.3-17.49-23.9-6.41a7.82,7.82,0,0,1-5.39-9.34,8.06,8.06,0,0,1,9.34-5.39l38.63,10.34L91.46,122,52.77,99.68,14.14,110a7.14,7.14,0,0,1-2,.23,7.61,7.61,0,0,1-7.36-5.66,8.27,8.27,0,0,1,5.39-9.73l23.9-6.4L3.79,71.37A7.61,7.61,0,0,1,11.41,58.2L41.72,75.69,35.31,51.8a7.35,7.35,0,0,1,5.4-9.35,7.72,7.72,0,0,1,9.34,5.39L60.4,86.46l38.68,22.32V64.13L70.82,35.88A7.62,7.62,0,0,1,81.6,25.1L99.08,42.59v-35a7.63,7.63,0,0,1,15.25,0v35L131.81,25.1a7.62,7.62,0,0,1,10.77,10.78L114.33,64.13v44.64L153,86.45l10.35-38.62a7.74,7.74,0,0,1,9.34-5.39,7.64,7.64,0,0,1,5.39,9.35l-6.41,23.89L202,58.19a7.63,7.63,0,0,1,7.64,13.2L179.32,88.86l23.9,6.4a7.63,7.63,0,0,1-2,15,8.46,8.46,0,0,1-2-.25L160.64,99.68,121.52,122l38.68,22.32,38.64-10.36a7.63,7.63,0,0,1,3.95,14.74l-23.91,6.4,30.3,17.49A7.41,7.41,0,0,1,212.38,183Z"/></g></g></svg>