<svg xmlns="http://www.w3.org/2000/svg" viewBox="0 0 846.33 718.99"><defs><style>.cls-1{fill:#06b6d4;}.cls-1,.cls-2{fill-rule:evenodd;}.cls-2,.cls-3,.cls-6{fill:#52525b;}.cls-3{font-size:170.89px;font-family:DunbarLow-Light, Dunbar Low;font-weight:300;letter-spacing:0.08em;}.cls-4{letter-spacing:0.06em;}.cls-5{letter-spacing:0.08em;}</style></defs><g id="Layer_2" data-name="Layer 2"><g id="Layer_1-2" data-name="Layer 1"><path class="cls-1" d="M696.76,211.17a30.93,30.93,0,0,0,20.45-26.71,33.38,33.38,0,0,0-41.93,24.41l8.14,11.9a8.23,8.23,0,0,0-8.36,13.56,61.45,61.45,0,0,0,58.64,41.73q6-41.49-36.94-64.89Z"/><path class="cls-2" d="M210.25,215.73h0a44,44,0,0,1-3.55-3.42,43,43,0,0,1-11.24-32.95,169.29,169.29,0,0,0,14.79,36.37ZM403.06,368h0a528.22,528.22,0,0,1,73.33,2.32A101.49,101.49,0,0,1,467,326.77a92.51,92.51,0,0,1,99.54-82.42,21.77,21.77,0,0,0,27.13,21.91,36.09,36.09,0,0,0-15.86-28q39.45-.2,54,14.19a207.34,207.34,0,0,0-26.08-9.18Q605,282.1,667.33,288q-7.77-45.6-39.65-49.45l-29.83-6.68q30.15-26.24,76.57-19.4-11-9-62.8-5.43a49.27,49.27,0,0,0,2.3-6.89q53.28,7.06,71.15-44.65Q612.62,142.67,608.69,187q25.26-20.22,45.49-22.12Q621,178.26,611.62,190.52,603.79,207.8,590.76,217q-22.53,18.13-45.28,8.15a33.32,33.32,0,0,0,33-17.53,23.62,23.62,0,0,0-36.93,12.31L483.92,250q4.56-28.59,34.43-39.23,28-2.12,34.64-15.86-6.53,2.79-32.76,1.88,1.85-11.37,5.63-17.11a19.89,19.89,0,0,0,26.92-9.39q-10-10-26.92,2.71-2.15-30.9,11.27-42.35-9.39,12.9-4.59,33.8,32.75-9.44,29.63-72.62-49.84,21.2-44.23,63.23,1.06,32.35-29.64,46.74L472,160.26q24.29-14.62,21.91-40.06,4,6.17,3.54,16.28A35.59,35.59,0,0,0,487.26,87q-17.81,27-5,53.21-3.58,3.67-15.64,9.59l-10-11.05q34.21-10.44-.83-76.79l-19.2,42.56Q403.38,77.73,351,85.77q35.21,72.11,96,61.77-7-25.33-39.64-42.15,60.94,20.16,58.42,97.24-3.69,33.5-28.58,68.12-6.13-6.56-10.12-28.59-2.86-33.16-36.52-48.4-43.32-37-79.7-3.55,44.55,37,80.12,7.09,9.7,10.83,15.23,29-31.47-18.9-53-3.54,27.66,33.5,55.92,16.49a127.34,127.34,0,0,0-1.25,24q-22.62-14.56-74.48-25.66-19.54-44.15-49.88-54.46A43.79,43.79,0,0,1,299,187.29q-6.63-41-73.45-25,26.19,52,70.53,33.81,16.2,24.39,15.45,41.73-22.74,5.37-50.5-15.44a52.47,52.47,0,0,0-65.52-43q46.69,5,47,30.13-8.19-1-12.72,2.3l4.17,6.46a63.28,63.28,0,0,0-14.69,3.43,43.92,43.92,0,0,0,5.87,2.37,69,69,0,0,1,16.12-2.46c-.32,1.59-.69,3.14-1.08,4.65q22.54,2.13,30.64,15.1-30,12.28-44.44,22.12,7.77-11.17,31.3-22.95-14.29-.33-24.9,3.16A47.94,47.94,0,0,1,209.12,263q-5.48,10.1-6.56,24.7,57.18,2.65,61.76-38.39,64.4-3.28,104.75,21.28,56.06,42.88,34,97.45ZM332,110.18h0q39.44,16.54,37.14,56.13-44.36,6.25-37.14-56.13Zm95.55,80.74h0a47.41,47.41,0,0,0-12.73,16.48q-5.54-39.59,34.22-50.28a48.43,48.43,0,0,1-22.53,56.75,24.08,24.08,0,0,1,1-23Zm51.36,184.47-78.12-2.18c.82-1.74,1.57-3.48,2.27-5.21a528.22,528.22,0,0,1,73.33,2.32q1.19,2.56,2.52,5.07Z"/><path class="cls-1" d="M596.59,97.86l-5-10.43a38.74,38.74,0,0,1,37.77-19.82A34.61,34.61,0,0,1,615,101.2a25.72,25.72,0,0,1,23.58,10.23,43.16,43.16,0,0,1-66.14,28.17q-12.74-17.34,24.2-41.74Z"/><path class="cls-1" d="M508.32,96.2q12.42-34.74,25.46-41.53Q516,77.16,514,104.54q55.53-6.26,50.7-80.12Q487,47.78,508.32,96.2Z"/><path class="cls-1" d="M426.53,36.31a81.7,81.7,0,0,0-6.26,50.08Q391.17,36.17,429.45,0a61.84,61.84,0,0,1,3.33,86.39,76.06,76.06,0,0,1-6.25-50.08Z"/><path class="cls-1" d="M364.77,35.47Q391,50.86,395.65,70.11q-51.9,9.94-80.13-53.42,86.12-8.3,84.72,47.58Q382,39.94,364.77,35.47Z"/><path class="cls-1" d="M336.38,79.29,342,83.67A31,31,0,0,0,328.87,48,29.69,29.69,0,0,0,326,69.48a67.84,67.84,0,0,0-69.27-15,66.87,66.87,0,0,0,77.83,47.79,36.64,36.64,0,0,0-9-15.86A32.16,32.16,0,0,0,337,93.27c-.41-9.32-.63-14-.63-14Z"/><path class="cls-1" d="M269.19,136.46l11.06,10.85q-2.79-42.54-54.88-40.68,18,53.38,49.87,44.23l-6.05-14.4Z"/><path class="cls-1" d="M206.59,136.46l37.57,7.93a43.13,43.13,0,0,1-68.66-1.87q36.15-33.11,58.22-10.44a131.8,131.8,0,0,1-27.13,4.38Z"/><path class="cls-1" d="M195.46,179.36a169.29,169.29,0,0,0,14.79,36.37q-33.5,14.37-44.14,51.35,64.54,6.6,75.12-45.49-22.56.87-38,14.19,6-14.49,30.68-17.53l-4.17-6.46q4.53-3.3,12.72-2.3-.33-25.1-47-30.13Z"/><path class="cls-1" d="M722.8,461.14a526.75,526.75,0,0,0-599.27,0c183.68-100.09,415.6-100.09,599.27,0Z"/><text class="cls-3" transform="translate(0 614.43) scale(0.92 1)">ColdXposu<tspan class="cls-4" x="786.96" y="0">r</tspan><tspan class="cls-5" x="837.38" y="0">e</tspan></text><path class="cls-6" d="M82.31,684.77H97.39v1.67H84.24v11H95.35v1.66H84.24v13.33H82.31Z"/><path class="cls-6" d="M109.9,684.77h15.15v1.67H111.83v10.48h11.1v1.67h-11.1v12.2h13.64v1.67H109.9Z"/><path class="cls-6" d="M139.09,684.77h15.15v1.67H141v10.48h11.1v1.67H141v12.2h13.64v1.67H139.09Z"/><path class="cls-6" d="M168.28,684.77h1.93v26H183v1.67H168.28Z"/><path class="cls-6" d="M215.75,701.23l-8.31-16.46h2.06l4.21,8.67c1,2,1.87,3.95,2.92,6h.17c1.06-2,2.11-3.95,3-6l4.21-8.67h2l-8.31,16.46v11.23h-1.93Z"/><path class="cls-6" d="M235.5,698.53c0-8.76,4.75-14.26,11.41-14.26s11.4,5.5,11.4,14.26S253.56,713,246.91,713,235.5,707.29,235.5,698.53Zm20.78,0c0-7.68-3.75-12.5-9.37-12.5s-9.38,4.82-9.38,12.5,3.75,12.68,9.38,12.68S256.28,706.21,256.28,698.53Z"/><path class="cls-6" d="M272.14,701.84V684.77h1.93v16.85c0,7.37,3.45,9.59,7.37,9.59S289,709,289,701.62V684.77h1.84v17.07c0,8.64-4.59,11.12-9.36,11.12S272.14,710.48,272.14,701.84Z"/><path class="cls-6" d="M306.42,684.77h2l11.64,19.52,3.14,5.53h.17c-.11-2.71-.25-5.39-.25-8.07v-17H325v27.69h-2L311.3,692.94l-3.14-5.53H308c.1,2.66.24,5.17.24,7.85v17.2h-1.82Z"/><path class="cls-6" d="M338.91,698.56c0-8.78,4.94-14.29,12.25-14.29a10,10,0,0,1,7.54,3.31l-1.13,1.29a8.22,8.22,0,0,0-6.39-2.84c-6.34,0-10.25,4.83-10.25,12.51s3.71,12.67,10,12.67a9,9,0,0,0,6.18-2.1v-8.62h-6.6v-1.64H359v11a11,11,0,0,1-8.19,3.13C343.68,713,338.91,707.36,338.91,698.56Z"/><path class="cls-6" d="M373.66,684.77H388.8v1.67H375.59v10.48h11.1v1.67h-11.1v12.2h13.64v1.67H373.66Z"/><path class="cls-6" d="M402.85,684.77h7.91c5.5,0,9.11,2,9.11,7.31,0,5-3.61,7.67-9.11,7.67h-6v12.71h-1.93Zm7.41,13.35c4.9,0,7.62-1.94,7.62-6s-2.72-5.68-7.62-5.68h-5.48v11.72Zm.07,1.06,1.85-.56,8.22,13.84h-2.24Z"/><path class="cls-6" d="M431.18,717.7a5.73,5.73,0,0,0,3.23-5.21l-.53-2.49,1.5,2a1.54,1.54,0,0,1-1.45.68,1.66,1.66,0,0,1-1.78-1.76,1.7,1.7,0,0,1,1.79-1.75c1.3,0,2.15,1.15,2.15,3a7.79,7.79,0,0,1-4.31,6.85Z"/><path class="cls-6" d="M466,684.77h1.94v26h12.75v1.67H466Z"/><path class="cls-6" d="M493.15,684.77h1.93v27.69h-1.93Z"/><path class="cls-6" d="M506.89,684.77h2.05l5.12,16.17c1.06,3.39,1.79,5.94,2.93,9.3h.16c1.14-3.36,1.87-5.91,2.93-9.3l5.12-16.17h1.94l-9,27.69H516Z"/><path class="cls-6" d="M538.93,684.77h15.14v1.67H540.86v10.48H552v1.67h-11.1v12.2H554.5v1.67H538.93Z"/><path class="cls-6" d="M584.08,684.77H586v26h12.75v1.67H584.08Z"/><path class="cls-6" d="M608.63,698.53c0-8.76,4.75-14.26,11.4-14.26s11.4,5.5,11.4,14.26S626.68,713,620,713,608.63,707.29,608.63,698.53Zm20.78,0c0-7.68-3.76-12.5-9.38-12.5s-9.38,4.82-9.38,12.5,3.76,12.68,9.38,12.68S629.41,706.21,629.41,698.53Z"/><path class="cls-6" d="M645.35,684.77h2L659,704.29l3.14,5.53h.17c-.11-2.71-.25-5.39-.25-8.07v-17h1.83v27.69h-2l-11.64-19.52-3.14-5.53h-.17c.11,2.66.25,5.17.25,7.85v17.2h-1.83Z"/><path class="cls-6" d="M677.84,698.56c0-8.78,4.95-14.29,12.25-14.29a10,10,0,0,1,7.55,3.31l-1.14,1.29a8.2,8.2,0,0,0-6.38-2.84c-6.34,0-10.25,4.83-10.25,12.51s3.7,12.67,10,12.67a9,9,0,0,0,6.19-2.1v-8.62h-6.61v-1.64h8.46v11a11,11,0,0,1-8.19,3.13C682.62,713,677.84,707.36,677.84,698.56Z"/><path class="cls-6" d="M712.6,684.77h15.14v1.67H714.53v10.48h11.1v1.67h-11.1v12.2h13.63v1.67H712.6Z"/><path class="cls-6" d="M741.79,684.77h7.91c5.5,0,9.11,2,9.11,7.31,0,5-3.61,7.67-9.11,7.67h-6v12.71h-1.93Zm7.41,13.35c4.89,0,7.62-1.94,7.62-6s-2.73-5.68-7.62-5.68h-5.48v11.72Zm.07,1.06,1.85-.56,8.22,13.84h-2.25Z"/></g></g></svg>