<svg xmlns="http://www.w3.org/2000/svg" viewBox="0 0 507.38 441.91"><defs><style>.cls-1,.cls-2{fill:#fff;}.cls-1{fill-rule:evenodd;}</style></defs><g id="Layer_2" data-name="Layer 2"><g id="Layer_1-2" data-name="Layer 1"><path class="cls-1" d="M425,129.79a19,19,0,0,0,12.57-16.42,20.51,20.51,0,0,0-25.77,15l5,7.31a5.05,5.05,0,0,0-5.13,8.33,37.75,37.75,0,0,0,36,25.65q3.66-25.5-22.71-39.88Z"/><path class="cls-1" d="M126,132.59h0a25.35,25.35,0,0,1-2.18-2.1,26.42,26.42,0,0,1-6.91-20.25A104.12,104.12,0,0,0,126,132.59Zm118.5,93.59h0a324.7,324.7,0,0,1,45.08,1.43,62.42,62.42,0,0,1-5.77-26.77,56.87,56.87,0,0,1,61.18-50.66,13.39,13.39,0,0,0,16.67,13.47,22.17,22.17,0,0,0-9.74-17.19q24.24-.12,33.21,8.72a129.06,129.06,0,0,0-16-5.64q-.46,23.85,37.84,27.45-4.78-28-24.37-30.4l-18.34-4.1q18.52-16.12,47.06-11.93-6.78-5.5-38.6-3.33a28.88,28.88,0,0,0,1.41-4.24q32.76,4.35,43.74-27.44-44.54-7.87-47,19.36,15.53-12.42,28-13.59-20.39,8.25-26.16,15.78-4.8,10.62-12.82,16.28-13.85,11.15-27.83,5a20.48,20.48,0,0,0,20.26-10.78,14.53,14.53,0,0,0-22.7,7.57l-35.39,18.47q2.79-17.57,21.16-24.11,17.19-1.31,21.29-9.75c-2.68,1.14-9.38,1.53-20.14,1.16q1.14-7,3.47-10.52a12.22,12.22,0,0,0,16.54-5.77q-6.14-6.12-16.54,1.67-1.33-19,6.92-26-5.76,7.93-2.82,20.78,20.13-5.8,18.21-44.63-30.63,13-27.19,38.85.66,19.89-18.21,28.73l-10-25.52q14.92-9,13.47-24.62,2.43,3.8,2.17,10a21.88,21.88,0,0,0-6.28-30.39q-10.95,16.56-3.08,32.7-2.2,2.27-9.61,5.9s-2.06-2.26-6.16-6.79q21-6.42-.51-47.2s-3.94,8.72-11.8,26.16q-20.4-16.48-52.59-11.54,21.64,44.31,59,38-4.32-15.57-24.37-25.91Q284.55,77.16,283,124.54q-2.26,20.58-17.57,41.87-3.76-4-6.22-17.57-1.75-20.39-22.44-29.75-26.62-22.71-49-2.18,27.39,22.76,49.25,4.36,6,6.66,9.36,17.82-19.35-11.61-32.58-2.18,17,20.6,34.37,10.14a78,78,0,0,0-.76,14.74q-13.9-8.94-45.79-15.77-12-27.14-30.65-33.47a27,27,0,0,1,9.49,2.56q-4.08-25.19-45.14-15.39,16.08,32,43.35,20.78,9.94,15,9.49,25.65-14,3.3-31-9.49a32.25,32.25,0,0,0-40.27-26.42q28.7,3.09,28.9,18.52-5-.62-7.82,1.41l2.56,4a38.75,38.75,0,0,0-9,2.11,27,27,0,0,0,3.61,1.46,42.18,42.18,0,0,1,9.9-1.51q-.3,1.45-.66,2.85,13.86,1.3,18.83,9.28-18.42,7.54-27.32,13.6,4.78-6.87,19.24-14.11a45.8,45.8,0,0,0-15.3,2,29.48,29.48,0,0,1-14.52,11.85,37.6,37.6,0,0,0-4,15.18q35.15,1.63,38-23.59,39.57-2,64.38,13.08,34.45,26.36,20.88,59.89ZM200.78,67.72h0q24.24,10.17,22.83,34.5-27.27,3.84-22.83-34.5Zm58.73,49.62h0a29.06,29.06,0,0,0-7.82,10.14q-3.41-24.35,21-30.91a29.76,29.76,0,0,1-13.85,34.88,14.8,14.8,0,0,1,.64-14.11Zm31.56,113.38-48-1.34c.5-1.07,1-2.14,1.39-3.2a324.7,324.7,0,0,1,45.08,1.43c.48,1,1,2.09,1.54,3.11Z"/><path class="cls-1" d="M363.41,60.15c-2.05-4.28-3.08-6.41-3.08-6.41a23.82,23.82,0,0,1,23.21-12.19,21.28,21.28,0,0,1-8.85,20.65,15.79,15.79,0,0,1,14.49,6.29A26.53,26.53,0,0,1,348.53,85.8q-7.83-10.65,14.88-25.65Z"/><path class="cls-1" d="M309.16,59.12q7.62-21.34,15.64-25.52a54.87,54.87,0,0,0-12.18,30.65Q346.75,60.41,343.78,15,296,29.36,309.16,59.12Z"/><path class="cls-1" d="M258.88,22.32A50.26,50.26,0,0,0,255,53.1Q237.15,22.23,260.68,0a38,38,0,0,1,2.05,53.1,46.74,46.74,0,0,1-3.85-30.78Z"/><path class="cls-1" d="M220.92,21.8q16.11,9.47,19,21.29Q208,49.21,190.66,10.26q52.92-5.1,52.06,29.24-11.19-15-21.8-17.7Z"/><path class="cls-1" d="M203.48,48.73l3.46,2.7a19,19,0,0,0-8.08-21.93,18.15,18.15,0,0,0-1.79,13.21,41.7,41.7,0,0,0-42.58-9.24,41.09,41.09,0,0,0,47.84,29.37,22.61,22.61,0,0,0-5.52-9.74,19.91,19.91,0,0,0,7.05,4.23q-.37-8.59-.38-8.6Z"/><path class="cls-1" d="M162.18,83.87l6.8,6.67q-1.72-26.15-33.73-25,11.07,32.8,30.65,27.18l-3.72-8.85Z"/><path class="cls-1" d="M123.7,83.87l23.09,4.88a26.5,26.5,0,0,1-42.19-1.16q22.2-20.34,35.78-6.41a80.5,80.5,0,0,1-16.68,2.69Z"/><path class="cls-1" d="M116.86,110.24A104.12,104.12,0,0,0,126,132.59q-20.58,8.83-27.13,31.56,39.68,4.07,46.17-28-13.86.53-23.34,8.72,3.7-8.91,18.85-10.78l-2.56-4q2.79-2,7.82-1.41-.19-15.42-28.9-18.52Z"/><path class="cls-1" d="M441,283.43a323.74,323.74,0,0,0-368.33,0c112.89-61.52,255.44-61.52,368.33,0Z"/><path class="cls-2" d="M59,308c-6.16-4.1-12.51-6.52-19.73-6.52-19.74,0-34.47,17.12-34.47,36.77,0,19.95,14.73,37.07,34.47,37.07,6.64,0,12.8-2,19.73-6.51l2.31,4.31c-7.51,5-14.25,7-22.14,7C16.56,380.16,0,361.47,0,338.36s16.65-41.59,39.18-41.59c7.89,0,14.34,1.89,22.14,7Z"/><path class="cls-2" d="M113.39,359.05c0,11-8.27,20.48-18.86,20.48s-18.87-9.45-18.87-20.48,8.28-20.37,18.87-20.37S113.39,348,113.39,359.05Zm-33.11,0c0,8.93,6.26,16.28,14.25,16.28s14.24-7.35,14.24-16.28-6.25-16.17-14.24-16.17S80.28,350.23,80.28,359.05Z"/><path class="cls-2" d="M132.64,377.64h-4.33V295.72h4.33Z"/><path class="cls-2" d="M180.58,370.71c-3.27,5.15-8.57,8.61-14.82,8.61-10.4,0-18.1-9.35-18.1-20.27,0-10.71,7.7-20.16,18.1-20.16,6.16,0,11.45,3.46,14.73,8.61V295.72h4.33v81.92h-4.24Zm-14.25-27.62c-8.18,0-14.05,7.45-14.05,16s5.87,16.07,14.05,16.07,14.25-7.46,14.25-16S174.61,343.09,166.33,343.09Z"/><path class="cls-2" d="M224.38,339.41,203.2,377.64h-5.29l23.39-42.12-21-36.23h5.59l18.58,32,18.67-32h5.39l-21,36.13,23.58,42.22h-5.49Z"/><path class="cls-2" d="M268.56,370.71v27.83h-4.33v-58h4.23v7a17.63,17.63,0,0,1,14.93-8.71c10.39,0,18,9.34,18,20.16s-7.61,20.27-18,20.27A17.46,17.46,0,0,1,268.56,370.71Zm14.15,4.41c8.18,0,14.15-7.46,14.15-16.07,0-8.4-6-16-14.15-16s-14.25,7.45-14.25,16S274.53,375.12,282.71,375.12Z"/><path class="cls-2" d="M351.73,359.05c0,11-8.28,20.48-18.87,20.48S314,370.08,314,359.05s8.27-20.37,18.86-20.37S351.73,348,351.73,359.05Zm-33.11,0c0,8.93,6.25,16.28,14.24,16.28s14.25-7.35,14.25-16.28-6.26-16.17-14.25-16.17S318.62,350.23,318.62,359.05Z"/><path class="cls-2" d="M383.49,342.25,381.57,346a11.06,11.06,0,0,0-6.45-2.31c-3.56,0-6,1.89-6,4.72,0,2.31,1.83,4,6.93,7.36,7.9,5.46,10,8.4,10,12.7,0,6.41-4.71,10-11.55,10.09a20,20,0,0,1-11.07-3.68L365.3,371c3.56,2.21,6.55,3.37,8.66,3.47,5.2-.1,7.51-2.73,7.51-5.78,0-1.68-.57-4.09-7.79-8.92-6.94-4.73-9.15-6.73-9.15-11.56,0-3.67,3.18-8.71,10.4-8.71A17.22,17.22,0,0,1,383.49,342.25Z"/><path class="cls-2" d="M423.83,372.92a13.86,13.86,0,0,1-11.17,5.67c-7.6,0-12.23-5.25-12.23-13.87V340.57h4.34v22.79c0,8.4,4.52,10.92,9.43,10.92A9.82,9.82,0,0,0,423.73,364V340.57h4.33v37.07h-4.23Z"/><path class="cls-2" d="M449,377.64h-4.33V340.57h4.14v7.56c1.35-2.94,4.82-7.56,9.53-7.56h1.16V346a1.92,1.92,0,0,0-1.16-.32c-5.68,0-9.34,6.51-9.34,11Z"/><path class="cls-2" d="M490.15,379.53c-11.36,0-19.06-9.35-19.06-20.48,0-10.82,7.51-20.37,18.19-20.37,9.82,0,18.1,8.82,18.1,19.53v1H475.71c.1,9.34,6.26,16.17,14.44,16.17,5.39,0,10.11-2.62,13.67-6.41l2.6,3.36A22.09,22.09,0,0,1,490.15,379.53Zm-14.06-24.36h26.38c-1.25-7-6.64-12.29-13.19-12.29S477.44,347.92,476.09,355.17Z"/><path class="cls-2" d="M47.31,420.88h9.28v1H48.5v6.78h6.83v1H48.5v8.19H47.31Z"/><path class="cls-2" d="M64.27,420.88h9.31v1H65.46v6.45h6.82v1H65.46v7.5h8.38v1H64.27Z"/><path class="cls-2" d="M82.21,420.88h9.31v1H83.4v6.45h6.82v1H83.4v7.5h8.38v1H82.21Z"/><path class="cls-2" d="M100.15,420.88h1.19v16h7.84v1h-9Z"/><path class="cls-2" d="M129.33,431l-5.11-10.12h1.27l2.59,5.32c.59,1.25,1.15,2.43,1.79,3.68H130c.65-1.25,1.29-2.43,1.85-3.68l2.59-5.32h1.2L130.52,431v6.89h-1.19Z"/><path class="cls-2" d="M141.47,429.33c0-5.38,2.92-8.76,7-8.76s7,3.38,7,8.76-2.92,8.87-7,8.87S141.47,434.72,141.47,429.33Zm12.77,0c0-4.72-2.31-7.68-5.76-7.68s-5.76,3-5.76,7.68,2.31,7.79,5.76,7.79S154.24,434.05,154.24,429.33Z"/><path class="cls-2" d="M164,431.37V420.88h1.19v10.35c0,4.53,2.12,5.89,4.52,5.89s4.63-1.36,4.63-5.89V420.88h1.13v10.49c0,5.31-2.82,6.83-5.76,6.83S164,436.68,164,431.37Z"/><path class="cls-2" d="M185.06,420.88h1.24l7.16,12,1.92,3.4h.11c-.07-1.67-.15-3.31-.15-5V420.88h1.12v17h-1.25l-7.15-12-1.93-3.4H186c.06,1.63.15,3.18.15,4.82v10.57h-1.12Z"/><path class="cls-2" d="M205,429.35c0-5.39,3-8.78,7.52-8.78a6.16,6.16,0,0,1,4.64,2l-.7.8a5.05,5.05,0,0,0-3.92-1.75c-3.9,0-6.3,3-6.3,7.69s2.28,7.78,6.16,7.78a5.56,5.56,0,0,0,3.8-1.28v-5.3h-4.06v-1h5.19v6.75a6.75,6.75,0,0,1-5,1.92C208,438.2,205,434.76,205,429.35Z"/><path class="cls-2" d="M226.39,420.88h9.3v1h-8.12v6.45h6.82v1h-6.82v7.5H236v1h-9.56Z"/><path class="cls-2" d="M244.33,420.88h4.86c3.38,0,5.6,1.24,5.6,4.49s-2.22,4.71-5.6,4.71h-3.68v7.81h-1.18Zm4.55,8.2c3,0,4.68-1.19,4.68-3.71s-1.67-3.49-4.68-3.49h-3.37v7.2Zm0,.65,1.14-.34,5.05,8.5h-1.38Z"/><path class="cls-2" d="M261.74,441.12a3.53,3.53,0,0,0,2-3.21l-.33-1.53.92,1.21a.94.94,0,0,1-.89.42,1,1,0,0,1-1.1-1.08,1.06,1.06,0,0,1,1.11-1.08c.79,0,1.32.71,1.32,1.85a4.79,4.79,0,0,1-2.65,4.21Z"/><path class="cls-2" d="M283.13,420.88h1.18v16h7.84v1h-9Z"/><path class="cls-2" d="M299.83,420.88H301v17h-1.18Z"/><path class="cls-2" d="M308.27,420.88h1.26l3.15,9.94c.65,2.08,1.1,3.65,1.8,5.71h.1c.7-2.06,1.15-3.63,1.8-5.71l3.14-9.94h1.2l-5.56,17h-1.28Z"/><path class="cls-2" d="M328,420.88h9.31v1h-8.12v6.45H336v1h-6.82v7.5h8.38v1H328Z"/><path class="cls-2" d="M355.71,420.88h1.19v16h7.84v1h-9Z"/><path class="cls-2" d="M370.8,429.33c0-5.38,2.92-8.76,7-8.76s7,3.38,7,8.76-2.92,8.87-7,8.87S370.8,434.72,370.8,429.33Zm12.77,0c0-4.72-2.3-7.68-5.76-7.68s-5.76,3-5.76,7.68,2.31,7.79,5.76,7.79S383.57,434.05,383.57,429.33Z"/><path class="cls-2" d="M393.38,420.88h1.24l7.16,12,1.92,3.4h.11c-.07-1.67-.15-3.31-.15-5V420.88h1.12v17h-1.25l-7.15-12-1.93-3.4h-.1c.07,1.63.15,3.18.15,4.82v10.57h-1.12Z"/><path class="cls-2" d="M413.35,429.35c0-5.39,3-8.78,7.52-8.78a6.16,6.16,0,0,1,4.64,2l-.7.8a5.05,5.05,0,0,0-3.92-1.75c-3.9,0-6.3,3-6.3,7.69s2.28,7.78,6.15,7.78a5.57,5.57,0,0,0,3.81-1.28v-5.3h-4.06v-1h5.19v6.75a6.75,6.75,0,0,1-5,1.92C416.28,438.2,413.35,434.76,413.35,429.35Z"/><path class="cls-2" d="M434.7,420.88H444v1h-8.12v6.45h6.82v1h-6.82v7.5h8.38v1H434.7Z"/><path class="cls-2" d="M452.65,420.88h4.86c3.38,0,5.6,1.24,5.6,4.49s-2.22,4.71-5.6,4.71h-3.68v7.81h-1.18Zm4.55,8.2c3,0,4.68-1.19,4.68-3.71s-1.67-3.49-4.68-3.49h-3.37v7.2Zm0,.65,1.14-.34,5.05,8.5h-1.38Z"/></g></g></svg>