<svg xmlns="http://www.w3.org/2000/svg" viewBox="0 0 210.74 245.86"><defs><style>.cls-1{fill:#fff;}</style></defs><g id="Layer_2" data-name="Layer 2"><g id="Layer_1-2" data-name="Layer 1"><path class="cls-1" d="M87.81,66.73V8.78a8.78,8.78,0,0,0-17.56,0V66A111.61,111.61,0,0,0,97.8,139.39c15.53,17.67,25.13,39.74,25.13,63.22v34.47a8.78,8.78,0,0,0,17.56,0V203.26a111.31,111.31,0,0,0-27.58-73.32C97.41,112.23,87.81,90.22,87.81,66.73ZM17.56,55.1V43.9A8.78,8.78,0,1,0,0,43.9v8.78a141.68,141.68,0,0,0,27.58,83.64c15.56,21,25.1,45.88,25.1,72v28.76a8.79,8.79,0,0,0,17.57,0V210.74A141.75,141.75,0,0,0,42.67,127.1C27.1,106.14,17.56,81.22,17.56,55.1Zm165.63,72c-15.59-21-25.14-45.88-25.14-72V43.9a8.78,8.78,0,0,0-17.56,0v8.29a141.68,141.68,0,0,0,27.58,83.64c15.56,21.45,25.11,46.37,25.11,72.49v28.76a8.78,8.78,0,0,0,17.56,0V210.74A142,142,0,0,0,183.19,127.1Z"/></g></g></svg>