<svg xmlns="http://www.w3.org/2000/svg" viewBox="0 0 229.31 229.3"><defs><style>.cls-1{fill:#fff;}</style></defs><g id="Layer_2" data-name="Layer 2"><g id="Layer_1-2" data-name="Layer 1"><path class="cls-1" d="M114.65,215A100.33,100.33,0,0,0,215,114.65a94.65,94.65,0,0,0-9.36-41.52,7.74,7.74,0,0,1,3.94-9.49A7.29,7.29,0,0,1,219,67.22a114.57,114.57,0,1,1-57-57c3.22,1.64,5.19,5.89,3.58,9.49a7.18,7.18,0,0,1-9.49,3.55,100.26,100.26,0,0,0-41.52-9.36c-55.4,0-100.32,45.32-100.32,100.32A100.41,100.41,0,0,0,114.65,215Zm25.08-43a25.08,25.08,0,1,1-25.08-25.08A25.09,25.09,0,0,1,139.73,172Zm-25.08-10.74A10.75,10.75,0,1,0,125.4,172,10.72,10.72,0,0,0,114.65,161.23ZM143.31,57.32a7.17,7.17,0,0,1,0-14.33H172A7.16,7.16,0,0,1,177,55.22L160.6,71.66H172A7.17,7.17,0,1,1,172,86H143.31a7.16,7.16,0,0,1-5.06-12.23l16.44-16.44ZM193.47,0h28.66a7.15,7.15,0,0,1,5.06,12.23L210.76,28.66h11.37a7.17,7.17,0,1,1,0,14.33H193.47a7.15,7.15,0,0,1-5.06-12.23l16.44-16.43H193.47a7.17,7.17,0,0,1,0-14.33Zm-10,105.33a7.16,7.16,0,0,1,1.43,10,34.06,34.06,0,0,1-54.46,0,7.17,7.17,0,1,1,11.47-8.6,19.7,19.7,0,0,0,31.53,0,7.15,7.15,0,0,1,10-1.44ZM55.89,106.77a19.7,19.7,0,0,0,31.53,0,7.17,7.17,0,1,1,11.47,8.6,34.06,34.06,0,0,1-54.46,0,7.16,7.16,0,1,1,11.46-8.6Z"/></g></g></svg>