<svg xmlns="http://www.w3.org/2000/svg" viewBox="0 0 375.47 283.43"><defs><style>.cls-1{fill:#fff;fill-rule:evenodd;}</style></defs><g id="Layer_2" data-name="Layer 2"><g id="Layer_1-2" data-name="Layer 1"><path class="cls-1" d="M352.32,129.79a19,19,0,0,0,12.57-16.42,20.51,20.51,0,0,0-25.77,15l5,7.31A5.05,5.05,0,0,0,339,144a37.75,37.75,0,0,0,36,25.65q3.66-25.5-22.71-39.88Z"/><path class="cls-1" d="M53.3,132.59h0a25.35,25.35,0,0,1-2.18-2.1,26.42,26.42,0,0,1-6.91-20.25,103.61,103.61,0,0,0,9.09,22.35Zm118.5,93.59h0a324.56,324.56,0,0,1,45.07,1.43,62.55,62.55,0,0,1-5.76-26.77,56.87,56.87,0,0,1,61.18-50.66A13.38,13.38,0,0,0,289,163.65a22.2,22.2,0,0,0-9.74-17.19q24.24-.12,33.21,8.72a129.64,129.64,0,0,0-16-5.64q-.47,23.85,37.83,27.45-4.78-28-24.37-30.4l-18.33-4.1q18.53-16.12,47.06-11.93-6.78-5.5-38.6-3.33A30.11,30.11,0,0,0,301.4,123q32.75,4.35,43.73-27.44-44.52-7.87-46.94,19.36,15.53-12.42,28-13.59Q305.77,109.57,300,117.1q-4.82,10.62-12.82,16.28-13.85,11.15-27.83,5a20.48,20.48,0,0,0,20.26-10.78,14.53,14.53,0,0,0-22.7,7.57l-35.4,18.47q2.81-17.57,21.17-24.11,17.19-1.31,21.29-9.75-4,1.71-20.14,1.16,1.14-7,3.46-10.52a12.21,12.21,0,0,0,16.54-5.77q-6.12-6.12-16.54,1.67-1.32-19,6.93-26-5.78,7.93-2.82,20.78,20.13-5.8,18.21-44.63-30.63,13-27.19,38.85.66,19.89-18.21,28.73s-3.33-8.5-10-25.52q14.94-9,13.47-24.62,2.44,3.8,2.18,10a21.88,21.88,0,0,0-6.28-30.39q-11,16.56-3.08,32.7-2.21,2.27-9.62,5.9L204.7,85.3q21-6.42-.51-47.2l-11.8,26.16Q172,47.78,139.81,52.72q21.65,44.31,59,38-4.31-15.57-24.36-25.91,37.45,12.39,35.91,59.77-2.26,20.58-17.57,41.87-3.76-4-6.22-17.57-1.76-20.39-22.44-29.75-26.64-22.71-49-2.18,27.39,22.76,49.24,4.36,6,6.66,9.37,17.82-19.35-11.61-32.58-2.18,17,20.6,34.37,10.14a78.86,78.86,0,0,0-.77,14.74Q160.86,152.85,129,146q-12-27.14-30.65-33.47a27,27,0,0,1,9.49,2.56q-4.08-25.19-45.15-15.39,16.1,32,43.35,20.78,10,15,9.5,25.65-14,3.3-31-9.49a32.25,32.25,0,0,0-40.27-26.42q28.7,3.09,28.9,18.52c-3.36-.41-6,.06-7.82,1.41l2.56,4a38.84,38.84,0,0,0-9,2.11,27.11,27.11,0,0,0,3.62,1.46,42.18,42.18,0,0,1,9.9-1.51c-.2,1-.42,1.92-.67,2.85q13.86,1.3,18.84,9.28-18.42,7.54-27.32,13.6,4.78-6.87,19.24-14.11a45.76,45.76,0,0,0-15.3,2A29.46,29.46,0,0,1,52.6,161.62a37.61,37.61,0,0,0-4,15.18q35.15,1.63,38-23.59,39.59-2,64.39,13.08,34.44,26.36,20.88,59.89ZM128.13,67.72h0q24.24,10.17,22.83,34.5-27.27,3.84-22.83-34.5Zm58.73,49.62h0A29.06,29.06,0,0,0,179,127.48q-3.4-24.35,21-30.91a29.77,29.77,0,0,1-13.84,34.88,14.8,14.8,0,0,1,.64-14.11Zm31.56,113.38-48-1.34c.5-1.07,1-2.14,1.39-3.2a324.56,324.56,0,0,1,45.07,1.43c.49,1,1,2.09,1.55,3.11Z"/><path class="cls-1" d="M290.75,60.15l-3.07-6.41a23.82,23.82,0,0,1,23.21-12.19A21.28,21.28,0,0,1,302,62.2a15.8,15.8,0,0,1,14.49,6.29A26.53,26.53,0,0,1,275.88,85.8q-7.83-10.65,14.87-25.65Z"/><path class="cls-1" d="M236.5,59.12q7.63-21.34,15.65-25.52A54.87,54.87,0,0,0,240,64.25Q274.1,60.41,271.13,15,223.37,29.36,236.5,59.12Z"/><path class="cls-1" d="M186.23,22.32a50.19,50.19,0,0,0-3.85,30.78Q164.5,22.23,188,0a38,38,0,0,1,2,53.1,46.8,46.8,0,0,1-3.84-30.78Z"/><path class="cls-1" d="M148.27,21.8q16.11,9.47,19,21.29Q135.34,49.21,118,10.26q52.92-5.1,52.07,29.24-11.19-15-21.8-17.7Z"/><path class="cls-1" d="M130.82,48.73l3.47,2.7a19,19,0,0,0-8.08-21.93,18.2,18.2,0,0,0-1.8,13.21,41.68,41.68,0,0,0-42.57-9.24,41.08,41.08,0,0,0,47.83,29.37,22.49,22.49,0,0,0-5.51-9.74,19.91,19.91,0,0,0,7.05,4.23c-.25-5.73-.39-8.6-.39-8.6Z"/><path class="cls-1" d="M89.53,83.87l6.8,6.67q-1.72-26.15-33.74-25,11.09,32.8,30.66,27.18l-3.72-8.85Z"/><path class="cls-1" d="M51.05,83.87l23.09,4.88a26.51,26.51,0,0,1-42.2-1.16q22.22-20.34,35.78-6.41a80.3,80.3,0,0,1-16.67,2.69Z"/><path class="cls-1" d="M44.21,110.24a103.61,103.61,0,0,0,9.09,22.35q-20.58,8.83-27.13,31.56,39.67,4.07,46.17-28-13.86.53-23.34,8.72,3.7-8.91,18.85-10.78l-2.56-4c1.86-1.35,4.46-1.82,7.82-1.41q-.21-15.42-28.9-18.52Z"/><path class="cls-1" d="M368.33,283.43A323.74,323.74,0,0,0,0,283.43c112.89-61.52,255.44-61.52,368.33,0Z"/></g></g></svg>